<svg width="280" height="132" viewBox="0 0 280 132" fill="none" xmlns="http://www.w3.org/2000/svg">
  <g clip-path="url(#clip0_14_6904)">
    <path d="M276.436 58.1249C261.148 56.9086 245.797 56.5566 230.467 57.1311C222.973 57.4106 215.489 57.9127 208.026 58.627C201.516 59.2532 195.089 59.9416 188.967 62.2035C188.025 62.1517 187.072 62.4882 186.45 63.2956C185.534 63.9426 185.296 64.9208 185.508 65.8576C183.307 73.7974 181.422 81.8096 179.837 89.8892C177.957 87.1667 175.502 84.8375 172.514 83.1347C168.215 80.6865 163.435 79.7962 158.577 79.5788C159.209 79.553 159.841 79.5219 160.472 79.4753C164.73 79.17 168.992 78.347 172.472 75.7332C173.694 74.8171 174.016 73.1504 173.627 71.8202C174.855 71.0076 176.03 70.0915 177.139 69.0563C179.381 66.9653 177.076 62.9747 174.145 63.8598C175.295 61.6134 173.829 58.1404 170.799 59.186C166.402 60.6973 161.928 61.7842 157.365 62.4364C159.219 56.3082 159.908 49.8073 159.229 43.4306C158.862 39.9473 158.183 36.5053 157.075 33.1772C156.096 30.2425 154.838 27.313 151.653 26.2727C146.36 24.5439 139.44 28.3896 135.199 31.257C134.049 32.0334 132.951 32.877 131.895 33.7673C132.091 32.9495 132.293 32.1266 132.49 31.3088C133.029 29.0831 130.999 27.1422 129.031 27.3855C129.466 26.2882 129.921 25.1857 130.408 24.0833C131.035 22.6444 130.931 21.0968 129.605 20.0771C128.507 19.2283 126.472 19.0937 125.524 20.3204C125.364 20.5326 125.208 20.7448 125.048 20.957C125.048 20.957 125.043 20.957 125.038 20.9519C125.032 20.9674 125.022 20.9829 125.017 20.9984C121.303 25.9725 118.781 31.4175 117.45 37.3645C109.469 34.466 100.732 34.2176 92.6168 36.9298C90.1257 33.5913 87.2876 30.5117 84.1388 27.7478C81.7668 25.6619 78.7422 27.6236 78.9338 30.2684C78.0586 29.8543 77.1626 29.4713 76.2459 29.1142C73.9982 28.2447 71.5071 31.1121 72.4652 33.2187C71.1498 32.6338 69.8136 32.0748 68.4463 31.5779C62.6717 29.4817 55.2553 27.7115 50.879 33.3688C46.9844 38.4049 48.0358 45.5217 49.0508 51.329C49.9572 56.4893 50.7599 62.5192 53.7223 67.0584C49.4962 71.9962 49.75 80.7227 50.791 86.5404C51.2209 88.9472 51.9252 91.5817 52.9817 93.9936C44.4726 85.852 33.1253 81.4887 21.2757 83.6988C13.9474 85.0653 5.02912 89.6148 1.44523 96.9387C-2.36654 104.728 1.93206 114.971 8.4162 119.48C13.0204 122.678 18.3858 122.419 23.6477 122C24.901 121.902 26.4392 121.576 27.6822 121.809C28.7957 122.016 29.2566 122.761 30.0231 123.631C32.2138 126.105 34.3994 128.589 36.5901 131.068C37.9936 132.657 39.9876 132.041 40.9767 130.634C41.1477 130.659 41.3237 130.675 41.5102 130.675H214.557C215.028 131.037 215.639 131.26 216.401 131.26H253.835C255.155 131.26 256.036 130.582 256.486 129.671C257.517 129.49 258.48 128.858 258.967 127.668C267.626 106.431 276.301 84.9307 279.44 62.0637C279.73 59.9675 278.653 58.3112 276.441 58.1353L276.436 58.1249Z" fill="white"/>
    <path d="M213.8 7.88284C208.958 2.17387 199.739 -0.719438 192.421 0.155283C185.772 0.94719 180.375 5.70898 177.993 11.8579C175.18 19.1093 177.449 27.1578 182.177 33.0324C180.883 33.8501 179.961 35.1855 179.924 36.8625C179.914 37.4577 180.012 38.0115 180.199 38.5136C179.137 39.3521 178.557 40.5167 179.241 42.0849C179.536 42.763 179.997 43.2909 180.556 43.6998C180.349 44.4141 180.349 45.2008 180.65 46.0289C181.696 48.9223 187.191 49.973 189.853 50.2628C193.048 50.6096 196.938 49.7866 198.854 46.9502C200.376 44.6936 199.853 41.8572 198.838 39.3469C211.465 35.4961 223.827 19.6993 213.795 7.88284H213.8Z" fill="white"/>
    <path d="M212.511 12.127C210.455 6.57847 204.712 4.34768 199.641 5.75551C196.741 4.93772 193.654 4.40979 190.759 5.48637C187.776 6.59918 185.86 9.29062 184.726 12.1477C182.421 17.9757 183.721 24.9476 187.797 29.668C189.874 32.0696 192.846 33.9433 196.083 34.0675C199.734 34.202 202.951 32.0282 205.675 29.8388C210.864 25.6671 215.028 18.9436 212.506 12.1322L212.511 12.127Z" fill="#FFE56C"/>
    <path d="M176.139 125.173C169.593 123.594 162.891 123.47 156.19 123.517C149.203 123.568 142.222 123.641 135.235 123.703C132.237 123.729 132.231 128.387 135.235 128.361C135.51 128.361 135.784 128.361 136.059 128.356C135.924 129.857 137.069 131.451 138.881 130.81C150.86 126.56 163.808 131.42 176.139 129.66C178.475 129.329 178.242 125.675 176.139 125.168V125.173Z" fill="#C1D3DD"/>
    <path d="M272.391 67.7417C247.33 64.9778 222.02 65.1382 196.995 68.2178C196.632 68.2644 196.316 68.3731 196.042 68.5336C196.42 65.7438 192.106 64.6051 191.521 67.4829C187.362 87.8188 182.97 108.108 178.35 128.346C177.998 129.899 179.05 131.187 180.598 131.296C189.734 131.938 198.849 131.208 207.974 130.732C217.048 130.256 225.93 130.773 234.988 131.193C239.287 131.394 243.591 131.363 247.853 130.727C251.401 130.199 253.11 128.382 254.296 125.07C257.331 116.586 260.195 108.046 263.333 99.5991C266.938 89.9047 270.713 80.2672 274.639 70.6971C275.276 69.1495 273.712 67.8918 272.391 67.7468V67.7417Z" fill="#C1D3DD"/>
    <path d="M235.9 96.2761C232.233 92.6168 226.971 96.2399 224.18 98.9831C223.693 99.4593 223.491 99.9976 223.486 100.52C223.18 100.189 222.9 99.8423 222.626 99.4748C222.367 99.1332 222.134 98.7761 221.906 98.4086C222.579 97.244 222.346 95.3807 220.699 94.7285C219.099 94.0971 217.203 95.1116 216.748 96.7834C216.147 98.9676 218.146 101.317 219.394 102.881C222.377 106.617 227.437 108.781 231.834 106.053C234.538 104.376 239.017 99.3816 235.9 96.2761ZM229.82 101.763C228.934 102.456 228.002 102.699 227.075 102.601C227.209 102.513 227.344 102.404 227.473 102.28C228.737 101.038 229.845 100.334 231.394 99.5369C231.523 99.5731 231.637 99.6042 231.741 99.6249C231.731 99.6404 231.72 99.656 231.71 99.6715C231.016 100.142 230.534 101.209 229.825 101.763H229.82Z" fill="white"/>
    <path d="M230.234 89.0765C230.234 88.5072 229.98 87.824 229.55 87.4306C229.105 87.0217 228.524 86.7215 227.903 86.7474C227.256 86.7785 226.753 87.0165 226.256 87.4306C225.769 87.8395 225.386 88.5279 225.251 89.1438C225.143 89.6355 225.132 89.9513 225.194 90.4223C225.262 90.914 225.355 91.1728 225.583 91.6541C225.821 92.1562 226.458 92.5806 226.976 92.7255C227.535 92.8808 228.276 92.8083 228.773 92.4926C229.27 92.1717 229.71 91.6955 229.845 91.1003C229.907 90.826 229.918 90.562 229.892 90.3084C230.114 89.9306 230.234 89.4596 230.234 89.0817V89.0765Z" fill="white"/>
    <path d="M237.5 88.1656C234.501 88.1656 234.496 92.8239 237.5 92.8239C240.504 92.8239 240.504 88.1656 237.5 88.1656Z" fill="white"/>
    <path d="M219.519 85.0445C218.172 85.1066 217.297 86.0693 217.188 87.3736C217.126 88.1552 217.059 88.9316 216.997 89.7131C216.898 90.9295 218.141 92.094 219.327 92.0423C220.674 91.9802 221.549 91.0175 221.658 89.7131C221.72 88.9316 221.787 88.1552 221.849 87.3736C221.948 86.1573 220.705 84.9928 219.519 85.0445Z" fill="white"/>
    <path d="M193.442 38.2237C192.821 36.9246 191.267 36.2414 189.801 36.3501C189.315 36.3863 188.843 36.4846 188.388 36.6296C188.217 36.5416 188.025 36.4691 187.807 36.4225C187.46 36.3449 187.108 36.2621 186.761 36.1844C184.508 35.672 182.846 38.3583 184.493 40.0767C184.508 40.0922 184.519 40.1026 184.534 40.1181C183.97 41.3914 183.82 42.882 184.441 44.1397C185.353 45.9772 187.362 46.5776 189.289 46.2825C192.898 45.7287 196.995 41.2361 193.442 38.2289V38.2237Z" fill="#C1D3DD"/>
    <path d="M201.9 74.403C198.569 77.7052 195.374 81.142 192.324 84.7081C191.868 85.2412 191.8 86.0176 192.324 86.5404C192.79 87.0062 193.696 87.0735 194.157 86.5404C197.207 82.9742 200.403 79.5374 203.733 76.2352C204.919 75.0603 203.086 73.2332 201.9 74.403Z" fill="#E9F7FE"/>
    <path d="M203.054 81.2092C197.197 86.7992 191.909 92.9688 187.258 99.5939C186.854 100.168 187.154 101.033 187.724 101.364C188.371 101.742 189.091 101.473 189.495 100.898C194.017 94.4491 199.185 88.471 204.882 83.0363C206.089 81.8821 204.256 80.055 203.049 81.204L203.054 81.2092Z" fill="#E9F7FE"/>
    <path d="M199.559 94.0505C199.476 93.7503 199.243 93.4242 198.963 93.2793C198.316 92.9377 197.586 93.1396 197.192 93.7451C196.555 94.7286 195.913 95.7068 195.276 96.6902C195.1 96.9645 195.058 97.3786 195.146 97.6891C195.229 97.9893 195.462 98.3154 195.742 98.4603C196.389 98.802 197.119 98.6053 197.513 97.9945C198.15 97.0111 198.792 96.0329 199.429 95.0495C199.605 94.7751 199.647 94.3611 199.559 94.0505Z" fill="#E9F7FE"/>
    <path d="M261.774 77.2653C261.236 76.7736 260.479 76.7787 259.941 77.2653C257.807 79.2011 255.886 81.3335 254.135 83.6212C253.944 83.8697 253.928 84.3355 254.006 84.6202C254.089 84.9204 254.322 85.2465 254.601 85.3914C255.285 85.7537 255.932 85.5053 256.373 84.9256C256.398 84.8945 256.409 84.879 256.419 84.8686C256.461 84.8117 256.507 84.7599 256.549 84.703C256.652 84.5684 256.756 84.439 256.865 84.3096C257.077 84.0457 257.289 83.7869 257.507 83.5333C257.952 83.0053 258.408 82.4877 258.874 81.9805C259.796 80.9764 260.764 80.0188 261.774 79.1027C262.277 78.6472 262.271 77.7311 261.774 77.2705V77.2653Z" fill="#E9F7FE"/>
    <path d="M259.371 85.2619C258.692 84.9048 258.035 85.148 257.6 85.7277C255.73 88.207 253.86 90.6862 251.991 93.1706C251.582 93.7141 251.887 94.6406 252.457 94.9408C253.135 95.2979 253.793 95.0546 254.228 94.4749C256.098 91.9957 257.967 89.5165 259.837 87.032C260.246 86.4886 259.941 85.5621 259.371 85.2619Z" fill="#E9F7FE"/>
    <path d="M167.65 109.123C167.003 108.781 166.293 108.709 165.594 108.533C164.792 108.331 163.999 108.067 163.233 107.746C159.815 106.328 156.738 104.149 153.092 103.305C152.89 103.258 152.704 103.258 152.533 103.289C152.377 103.144 152.196 103.025 152.005 102.974C151.259 102.767 150.684 103.232 150.409 103.879C149.073 107.057 148.788 110.727 150.958 113.615C152.838 116.12 155.904 117.632 159.048 117.528C162.321 117.42 165.454 115.784 167.635 113.372C168.21 112.735 168.883 112.021 168.919 111.115C168.955 110.246 168.396 109.521 167.65 109.128V109.123Z" fill="#FDC152"/>
    <path d="M153.35 77.0944C153.35 76.0282 153.33 74.874 153.112 73.8285C153.014 73.3575 152.744 72.9745 152.392 72.7157C152.382 72.1153 152.361 71.52 152.315 70.9248C152.77 70.5159 153.024 69.9207 152.781 69.2323C152.377 68.0833 151.952 66.9394 151.522 65.8007C151.222 64.5637 150.849 63.3422 150.393 62.1466C150.652 61.9343 150.854 61.6549 150.927 61.3184C151.802 61.5358 152.796 61.2253 153.019 60.2004C154.065 55.3869 154.428 50.5578 153.961 45.6459C153.842 44.3934 153.666 43.1511 153.438 41.9141C153.381 40.8634 153.185 39.8489 152.775 38.9483C152.698 38.643 152.625 38.3376 152.542 38.0322C152.009 36.1379 151.481 33.4516 150.212 31.9092C149.145 30.61 147.716 30.7964 146.26 31.1587C144.183 31.6763 142.127 32.2663 140.108 32.9754C135.944 34.4298 132.272 36.526 129.351 39.8697C129.216 40.0249 129.123 40.1854 129.056 40.3407C123.493 37.5612 116.947 37.9856 110.898 38.3738C103.891 38.8241 96.9196 39.7558 90.0471 41.1947C87.9237 41.6398 85.764 42.1108 83.6976 42.8147C83.1175 42.882 82.5375 42.9648 81.9574 43.0632C82.1698 42.2402 81.8953 41.2827 80.8854 40.8789C77.3429 39.4711 74.1216 37.3645 70.5532 36.0136C68.8493 35.3667 65.7212 34.2228 63.7169 35.0975C62.6397 34.8232 61.5521 34.5903 60.4437 34.4091C57.6989 33.964 54.3221 33.6586 53.4728 37.0178C52.4888 40.9048 53.8042 46.236 54.9281 49.9419C54.9384 49.9678 54.9488 49.9936 54.9592 50.0195C55.0058 50.3456 55.0524 50.6717 55.1042 50.9926C55.8448 55.5266 57.1499 59.9209 58.8745 64.1703C55.6065 68.9321 53.9596 74.6773 54.5811 80.5209C55.2492 86.8044 58.6363 94.6924 64.8148 97.3424C68.1968 98.7968 72.3659 98.771 75.9912 98.9262C80.2587 99.1126 84.5366 99.0556 88.8093 98.9625C96.8316 98.7761 104.978 98.7192 112.71 96.3228C113.109 96.1986 113.415 95.9864 113.643 95.7327C120.883 95.1789 128.061 93.8591 135.131 92.208C139.476 91.1935 143.738 89.7908 148.114 88.9265C148.896 88.7712 149.684 88.6211 150.481 88.4658C150.999 87.3168 151.538 86.1729 152.061 85.0239C152.092 84.8324 152.159 84.6357 152.283 84.4338C152.346 84.32 152.413 84.2113 152.475 84.0974L152.491 84.0663C152.428 83.9214 152.366 83.7817 152.299 83.6367C152.309 83.6057 152.325 83.5798 152.335 83.5487C152.983 81.4629 153.335 79.2735 153.34 77.0893L153.35 77.0944ZM93.1856 47.385C93.0405 47.5558 92.6987 47.737 92.5123 47.4626C92.735 47.4368 92.9629 47.4109 93.1856 47.385ZM57.7507 38.0426C57.6056 38.1927 57.4865 38.3428 57.3881 38.5032C57.2742 38.5032 57.1706 38.5032 57.067 38.5136C57.2017 38.0426 57.4865 37.8304 58.0355 37.789C57.9371 37.8666 57.8439 37.9494 57.7507 38.0374V38.0426ZM120.81 41.6191C117.9 41.5725 114.943 41.5466 111.97 41.6139C114.057 41.4328 116.144 41.3551 118.242 41.4121C119.226 41.4379 120.205 41.5 121.183 41.5932C121.064 41.6087 120.94 41.6191 120.81 41.6191ZM145.095 35.4598C144.774 35.4546 144.448 35.465 144.121 35.4753C144.567 35.3511 145.007 35.2269 145.452 35.1079C145.722 35.0354 147.208 34.4919 147.648 34.5023C147.467 34.5385 147.716 35.17 147.928 35.6462C146.97 35.5064 145.986 35.4805 145.09 35.465L145.095 35.4598Z" fill="#FDC152"/>
    <path d="M62.7646 84.7651C61.1746 84.8168 60.4236 83.0778 60.1958 81.8148C60.1699 81.732 60.1543 81.644 60.1388 81.5612C61.0192 82.1409 62.0032 82.348 63.0131 81.9287C63.8418 81.5871 64.225 81.0333 64.3131 80.1586C64.4788 78.5075 63.5725 77.3067 62.3295 76.7011C62.7749 76.5406 63.1789 76.256 63.4844 75.8005C64.2406 74.6825 64.0282 73.5852 63.3394 72.726C63.5362 72.5035 63.6812 72.2343 63.7486 71.9652C64.1991 70.1899 63.0649 68.6682 61.5786 67.9125C61.5786 67.8918 61.5786 67.8763 61.5786 67.8555C63.355 69.2789 65.8357 66.7117 64.0593 65.221C60.2838 62.0482 58.2588 64.6776 58.0775 67.7624C57.3732 68.1557 56.8449 68.8907 56.6947 70.0501C56.586 70.8731 56.7051 71.8254 56.9796 72.7364C56.3995 73.9268 56.617 75.8988 57.3421 77.7363C57.1505 78.0002 56.9796 78.3004 56.8501 78.642C55.3223 82.6637 58.1863 88.5435 62.8267 88.3882C65.1573 88.3106 65.1003 84.6875 62.7646 84.7651Z" fill="#FFEBB4"/>
    <path d="M152.419 81.2041C152.3 80.3966 152.01 79.6565 151.601 79.025C151.937 78.4453 152.16 77.7776 152.227 77.022C152.336 75.7591 151.953 74.4754 151.233 73.5024C151.725 72.0066 151.637 70.1018 151.077 68.7872C150.974 68.5387 150.844 68.2903 150.705 68.0419C150.85 67.4156 150.896 66.7686 150.87 66.1837C150.736 62.9281 147.53 58.715 144.324 61.8515C142.651 63.4871 145.267 66.0026 146.929 64.367C146.97 64.9519 147.069 65.5316 147.214 66.1009C145.831 66.4529 144.925 67.8452 145.422 69.2427C145.795 70.2882 146.888 70.8938 147.96 70.8368C148.048 71.1681 148.053 71.5149 147.98 71.8772C147.659 71.8979 147.328 71.9496 146.986 72.0635C145.173 72.6535 145.422 74.9465 147.048 75.5572C147.556 75.7487 148.011 75.8315 148.426 75.8367C148.69 76.1214 148.659 76.4474 148.327 76.8098C146.981 76.6183 145.567 77.141 144.521 78.6782C143.863 79.6461 144.583 81.0695 145.65 81.3179C146.66 81.556 147.69 81.5198 148.628 81.2558C149.047 81.7889 149.26 82.4877 148.343 83.0467C147.607 83.4918 145.743 82.2289 145.173 81.8769C143.179 80.6554 141.413 83.8179 143.397 85.0342C145.401 86.2609 147.69 87.3168 150.011 86.2609C152.041 85.3344 152.724 83.3106 152.414 81.1989L152.419 81.2041Z" fill="#FFEBB4"/>
    <path d="M59.056 33.2031C58.7815 33.1721 58.533 33.2031 58.3154 33.2704C57.5748 32.3388 55.7104 32.2094 55.0268 33.669C53.4057 37.142 54.2706 42.38 54.8817 46.0289C55.12 47.4471 56.8187 47.8301 57.8493 47.0331C59.113 46.06 59.1803 44.4606 59.3668 42.9855C59.3875 42.8044 59.403 42.6284 59.4237 42.4472C60.2161 43.3168 61.1225 43.9586 62.1427 44.119C62.7901 44.2226 63.3909 43.8085 63.7638 43.3323C64.4422 42.4628 64.5303 41.4224 64.2558 40.3407C64.8773 40.4287 65.5039 40.4442 66.1306 40.3717C66.7106 40.3044 67.3321 39.7558 67.4823 39.1968C68.5388 35.2735 61.8734 33.4826 59.056 33.1928V33.2031Z" fill="#FFEBB4"/>
    <path d="M154.262 34.7248C154.252 33.0116 154.511 30.905 153.19 29.6214C151.984 28.4413 150.212 29.373 149.969 30.5945C149.907 30.5841 149.845 30.579 149.782 30.5738C149.679 30.4754 149.57 30.3823 149.451 30.3046C149.171 29.5904 148.503 29.109 147.55 29.4351C143.309 30.874 139.512 32.9702 136.099 35.879C134.639 37.1264 135.939 39.2278 137.648 39.0208C139.828 38.7568 141.993 37.7786 144.07 36.6244C143.604 37.9753 143.262 39.3831 143.045 40.8427C142.822 42.3333 144.982 43.4617 146.043 42.3333C147.136 41.1688 147.623 39.9939 148.218 38.5136C148.353 38.1823 148.503 37.8614 148.653 37.5353C148.995 39.3572 149.446 41.1533 150.233 42.8199C151.051 44.559 153.403 43.8136 153.667 42.1418C154.05 39.6833 154.278 37.2144 154.262 34.7248Z" fill="#FFEBB4"/>
    <path d="M111.758 46.4482C112.576 46.1946 113.223 45.6045 113.358 44.6625C113.513 43.6066 112.913 42.3644 111.784 42.1056C102.037 39.8593 91.979 40.6616 82.6827 44.3054C81.5277 44.7557 81.2325 46.4327 81.7763 47.4161C82.4341 48.6169 83.734 48.7773 84.8889 48.3219C89.9281 46.3447 95.3609 45.3613 100.783 45.382C99.9081 45.9254 99.0588 46.5258 98.2508 47.1987C97.474 47.8405 97.3704 48.7566 97.676 49.5485C97.6708 49.5485 97.6604 49.5485 97.6552 49.5537C95.4904 50.0558 95.3299 53.389 97.5361 53.9739C100.11 54.6571 102.7 54.7347 105.315 54.2275C106.548 53.9894 107.05 53.0474 107.009 52.0847C108.624 51.7069 110.235 51.3342 111.851 50.9564C114.161 50.4181 114.021 46.6552 111.763 46.443L111.758 46.4482Z" fill="#FFEBB4"/>
    <path d="M111.421 53.1613C111.416 52.8559 111.333 52.5712 111.173 52.3021C111.059 52.1468 110.94 51.9864 110.826 51.8259C110.546 51.5361 110.215 51.329 109.831 51.21C109.629 51.1789 109.427 51.1427 109.225 51.1117C108.946 51.1065 108.676 51.1634 108.417 51.2514C108.236 51.2307 108.055 51.2255 107.874 51.2618C107.568 51.2669 107.283 51.3497 107.014 51.5102C106.745 51.6448 106.522 51.8363 106.356 52.0847C106.149 52.3021 106.004 52.5557 105.926 52.8507C105.895 53.0526 105.859 53.2545 105.828 53.4563C105.818 53.8704 105.911 54.2586 106.108 54.6209C106.222 54.7762 106.341 54.9366 106.455 55.0971C106.734 55.3869 107.066 55.5939 107.449 55.713C107.734 55.7906 108.024 55.832 108.319 55.8579C108.366 55.8579 108.412 55.8579 108.459 55.8579C108.697 55.8527 108.987 55.8113 109.194 55.7855C109.288 55.7751 109.381 55.7544 109.469 55.7285C109.697 55.6561 109.919 55.5629 110.137 55.4697C110.178 55.449 110.225 55.4335 110.266 55.4076C110.536 55.273 110.758 55.0815 110.924 54.8331C111.131 54.6157 111.276 54.3621 111.354 54.0671C111.458 53.7669 111.478 53.4615 111.421 53.1561V53.1613Z" fill="#FFEBB4"/>
    <path d="M102.006 43.3427C99.1211 43.5031 96.3037 44.3106 93.8488 45.853C93.015 46.3757 92.4298 47.4057 92.725 48.4098C93.0098 49.3829 93.8488 50.1282 94.8898 50.1541C95.7444 50.1748 96.6248 50.0661 97.4327 49.7763C98.0128 49.5641 98.4944 49.3053 98.8311 48.7618C98.8828 48.6842 98.9191 48.591 98.9554 48.4978C99.784 48.2442 100.628 48.0631 101.488 47.9544C101.617 47.944 101.747 47.9337 101.876 47.9233C102.498 47.8871 103.052 47.7318 103.518 47.297C103.927 46.9088 104.243 46.267 104.233 45.6925C104.212 44.5331 103.285 43.265 102.001 43.3375L102.006 43.3427Z" fill="#FFEBB4"/>
    <path d="M81.9786 50.506C81.5073 50.2524 80.9687 50.1955 80.4404 50.2162C79.7723 50.2472 79.1716 50.5319 78.6278 50.8994C77.6748 51.0754 76.7685 51.4584 75.9761 52.0329C75.6032 52.3072 75.3443 52.8403 75.4323 53.3062C75.5462 53.891 75.8311 54.4345 76.3386 54.7709C76.8773 55.1281 77.4469 55.2626 78.0891 55.2316C78.5708 55.2109 79.0524 55.0297 79.503 54.8796C79.8966 54.7451 80.2851 54.6053 80.6683 54.45C81.6264 54.067 82.9574 53.6374 83.1076 52.4366C83.2164 51.5671 82.7037 50.8942 81.9734 50.506H81.9786Z" fill="#E2863D"/>
    <path d="M133.567 48.0941C133.308 47.6231 132.888 47.2815 132.433 47.0124C131.858 46.6759 131.2 46.5828 130.537 46.5983C129.646 46.2256 128.673 46.0496 127.694 46.1014C127.228 46.1273 126.725 46.4327 126.544 46.8726C126.321 47.4212 126.264 48.032 126.503 48.591C126.756 49.1862 127.16 49.6055 127.72 49.9315C128.134 50.1748 128.636 50.2887 129.097 50.4077C129.501 50.5112 129.905 50.6044 130.309 50.6872C131.324 50.8942 132.676 51.2566 133.453 50.3301C134.017 49.6572 133.955 48.8187 133.557 48.0941H133.567Z" fill="#E2863D"/>
    <path d="M72.6672 49.8228C72.3306 49.1603 71.4864 48.974 70.8494 48.7204C70.1761 48.4512 69.508 48.1769 68.8347 47.9078C68.1718 47.6438 67.5193 47.3539 66.846 47.1107C66.1675 46.8622 65.3907 46.8571 64.8572 47.4057C64.3445 47.9336 64.3704 48.6531 64.4481 49.3311C64.5206 49.9833 64.6294 50.6354 64.7744 51.2721C65.0799 52.5867 65.5564 53.8704 66.1572 55.0763C66.24 55.242 66.3799 55.3507 66.5404 55.4283C66.8304 55.8372 67.4312 56.0235 67.9025 55.5939C69.5235 54.1292 71.0514 52.5712 72.4859 50.9253C72.7656 50.6044 72.8588 50.211 72.662 49.8177L72.6672 49.8228Z" fill="#7A341C"/>
    <path d="M143.832 45.5786C143.299 44.9886 142.47 45.206 141.807 45.3716C141.16 45.532 140.517 45.7184 139.886 45.9306C138.384 46.4378 136.923 47.0693 135.535 47.8353C134.515 48.3943 135.359 49.9626 136.379 49.4553C137.498 50.2162 138.669 50.8942 139.891 51.4688C140.59 51.8 141.429 52.3279 142.164 51.8C142.734 51.3963 142.864 50.5319 143.071 49.9056C143.304 49.2017 143.537 48.4978 143.765 47.7887C144.003 47.0693 144.428 46.2308 143.832 45.5683V45.5786Z" fill="#7A341C"/>
    <path d="M119.785 59.9417C118.744 59.6001 117.807 59.921 116.978 60.5007C116.652 59.7398 116.01 59.0411 115.191 58.9013C114.617 58.803 114.036 58.7564 113.508 59.0773C113.001 59.3878 112.695 59.7967 112.472 60.3506C112.136 61.1942 112.037 62.1155 112.063 63.0265C111.343 62.6383 110.53 62.3898 109.722 62.4571C108.832 62.5348 108.086 62.8816 107.697 63.7407C107.314 64.5844 107.526 65.4229 108.081 66.132C109.531 67.9746 111.483 69.3152 113.653 70.1743C114.71 70.5936 116.082 69.812 116.367 68.7458C116.486 68.6992 116.605 68.6475 116.719 68.5698C118.071 67.6537 119.205 66.6082 120.215 65.3297C120.681 64.7397 121.168 64.0927 121.427 63.3784C121.94 61.9758 121.22 60.4282 119.785 59.9572V59.9417Z" fill="#FFEBB4"/>
    <path d="M120.272 66.308C120.008 65.1641 118.672 65.2728 117.76 65.2573C116.082 65.2365 114.399 65.3763 112.747 65.6765C112.343 65.749 111.944 65.8318 111.545 65.9198C111.121 66.0181 110.675 66.1061 110.354 66.427C109.919 66.8669 109.883 67.5346 110.168 68.0626C110.37 68.4404 110.742 68.7303 111.064 68.9994C111.69 69.5325 113.161 70.7954 114.347 71.0335C114.389 71.0749 114.425 71.1112 114.466 71.1526C114.808 71.4942 115.347 71.5925 115.782 71.3596C117.076 70.6557 118.252 69.7188 119.2 68.5853C119.713 67.9694 120.484 67.1827 120.282 66.3028L120.272 66.308Z" fill="#7A341C"/>
    <path d="M152.315 80.4432C152.082 82.2341 151.658 84.0042 151.093 85.7174C150.829 86.5197 150.534 87.3116 150.197 88.088C150.13 88.2433 150.047 88.4037 149.969 88.5693C151.047 88.3623 152.124 88.1449 153.191 87.8758C156.759 78.3263 155.785 67.3276 150.233 58.6736C149.28 57.1933 146.862 58.5028 147.82 59.9986C151.699 66.0492 153.242 73.3264 152.31 80.4432H152.315Z" fill="#7A341C"/>
    <path d="M57.5073 88.2433C57.5177 88.2071 57.5229 88.1657 57.528 88.1294C57.585 87.6429 57.3105 87.146 57.1551 86.7009C56.7771 85.6139 56.487 84.5011 56.254 83.3728C55.8086 81.1938 55.6014 78.9681 55.6636 76.7425C55.8086 71.7116 57.2018 66.7428 59.8223 62.4313C60.739 60.9251 58.5276 59.2843 57.6057 60.7957C52.7478 68.7769 51.6395 78.5644 54.5346 87.4203C55.5289 87.6688 56.5181 87.9431 57.5021 88.2381L57.5073 88.2433Z" fill="#7A341C"/>
    <path d="M95.6206 63.7976C95.3306 61.5047 94.2948 58.6735 91.5292 58.6787C90.2241 58.6787 89.064 59.3153 88.256 60.3091C87.4637 61.277 87.1581 62.4623 86.982 63.6734C86.9302 64.015 86.925 64.367 86.9043 64.7138C86.8784 64.8897 86.8525 65.0657 86.8318 65.2365C86.5729 67.4156 86.6298 70.3348 88.4166 71.903C89.3954 72.7622 90.6747 73.2539 91.9798 72.9693C93.1502 72.7105 94.098 71.8358 94.6211 70.7799C95.688 68.6319 95.9158 66.1475 95.6206 63.7976Z" fill="#7A341C"/>
    <path d="M96.4181 59.5689C96.1126 59.2687 95.7034 59.0462 95.2632 59.0514C94.8334 59.0565 94.3931 59.1911 94.0772 59.5017C92.9585 60.6196 91.8813 61.779 90.8455 62.9747C90.5503 63.3163 90.3431 63.6631 90.3276 64.1289C90.3172 64.5326 90.483 65.0243 90.7782 65.3142C91.0837 65.6144 91.4929 65.8369 91.9383 65.8317C92.3526 65.8266 92.8394 65.7075 93.1243 65.3814C94.1601 64.1858 95.2373 63.0316 96.356 61.9084C96.6616 61.6031 96.8635 61.189 96.8739 60.749C96.8843 60.3453 96.7185 59.8536 96.4233 59.5638L96.4181 59.5689Z" fill="white"/>
    <path d="M141.086 60.3661C140.796 58.0732 139.761 55.242 136.995 55.2471C135.69 55.2471 134.53 55.8838 133.722 56.8775C132.929 57.8454 132.624 59.0307 132.448 60.2418C132.396 60.5835 132.391 60.9354 132.37 61.2822C132.344 61.4582 132.318 61.6342 132.298 61.805C132.039 63.984 132.096 66.9032 133.882 68.4715C134.861 69.3307 136.14 69.8224 137.446 69.5377C138.616 69.2789 139.564 68.4042 140.087 67.3483C141.154 65.2003 141.382 62.7159 141.086 60.3661Z" fill="#7A341C"/>
    <path d="M141.884 56.1322C141.578 55.832 141.169 55.6095 140.729 55.6147C140.299 55.6198 139.859 55.7544 139.543 56.065C138.424 57.1829 137.347 58.3423 136.311 59.538C136.016 59.8796 135.809 60.2263 135.793 60.6922C135.783 61.0959 135.949 61.5876 136.244 61.8774C136.55 62.1776 136.959 62.4002 137.404 62.395C137.818 62.3899 138.305 62.2708 138.59 61.9447C139.626 60.7491 140.703 59.5949 141.822 58.4717C142.127 58.1664 142.329 57.7523 142.34 57.3123C142.35 56.9086 142.184 56.4169 141.889 56.1271L141.884 56.1322Z" fill="white"/>
    <path d="M124.183 40.2009C114.115 37.3387 103.917 39.7247 94.0614 42.323C92.1814 42.8199 92.1451 45.8633 94.2944 45.9047C95.1334 45.9202 95.8896 45.8581 96.7027 45.6407C97.0652 45.5476 97.3397 45.3664 97.552 45.149C100.659 44.3468 103.819 43.5963 106.999 43.0994C106.636 43.2236 106.268 43.3375 105.906 43.472C104.124 44.1139 104.932 46.7587 106.584 46.9036C107.346 46.9709 108.112 47.0382 108.873 47.1003C107.594 48.2287 109.091 50.7493 111.033 50.0143C113.172 49.2017 115.316 48.3943 117.455 47.5817C119.05 46.9761 118.563 44.7867 117.227 44.264C119.283 43.9586 121.36 43.7723 123.447 43.7205C125.343 43.6739 126.285 40.8065 124.172 40.2061L124.183 40.2009Z" fill="#FFEBB4"/>
    <path d="M156.132 44.3209C155.971 40.703 155.572 36.9298 154.506 33.4516C154.003 31.816 153.185 30.3047 151.574 29.5386C149.984 28.7778 148.104 28.9641 146.411 29.1763C143.096 29.5904 139.885 30.7239 136.907 32.199C133.479 33.8967 130.304 36.0757 127.243 38.3583C126.684 38.7775 126.684 39.6833 127.119 40.1854C127.606 40.7444 128.383 40.7288 128.947 40.3096C133.774 36.7124 139.046 33.2808 145.023 32.0282C146.442 31.7332 147.959 31.4692 149.409 31.6038C150.849 31.7384 151.554 32.6493 151.973 33.9588C152.46 35.4909 152.734 37.1213 152.988 38.7051C153.252 40.3407 153.444 41.9969 153.532 43.648C153.739 47.5196 153.496 51.4015 152.822 55.2161C152.698 55.9045 153.382 56.5515 154.024 56.598C154.785 56.6498 155.282 56.0856 155.407 55.3972C156.054 51.7379 156.303 48.0216 156.142 44.3105L156.132 44.3209Z" fill="#7A341C"/>
    <path d="M80.6891 40.5839C75.1889 35.6617 68.2801 32.4889 60.9311 31.6504C59.2531 31.4589 57.4818 31.345 55.8867 32.0127C54.2915 32.6804 53.2765 34.171 52.8725 35.8118C52.4582 37.4939 52.4737 39.2486 52.4737 40.9721C52.4737 43.0476 52.5721 45.1232 52.7378 47.1935C53.1056 51.6758 53.8876 56.1115 55.0632 60.4489C55.2445 61.1217 55.8711 61.6031 56.591 61.4582C57.2436 61.3288 57.7874 60.6093 57.6009 59.9313C55.7054 52.9387 54.6489 45.4492 55.1202 38.1927C55.1927 37.054 55.3429 35.7031 56.1923 34.8594C57.1763 33.876 58.8336 34.0468 60.0921 34.1659C63.329 34.4712 66.4933 35.2787 69.492 36.5157C72.8532 37.9028 76.0176 39.8593 78.7262 42.2868C79.2493 42.7526 79.9795 42.9131 80.5544 42.411C81.0309 41.9969 81.207 41.0549 80.6787 40.5839H80.6891Z" fill="#7A341C"/>
    <path d="M170.762 61.9965C163.708 65.9871 155.494 67.6589 147.441 66.8048C146.447 66.7013 146.483 68.2541 147.467 68.3576C155.784 69.2375 164.294 67.4415 171.57 63.3267C172.44 62.835 171.632 61.5048 170.762 62.0016V61.9965Z" fill="#7A341C"/>
    <path d="M174.129 66.4891C165.848 69.165 156.961 71.9859 148.26 69.5532C147.296 69.2841 146.908 70.7902 147.871 71.0594C156.847 73.5749 166.013 70.7488 174.564 67.9849C175.512 67.6795 175.082 66.1837 174.124 66.4943L174.129 66.4891Z" fill="#7A341C"/>
    <path d="M170.296 72.3016C162.031 75.0189 152.993 74.8688 144.816 71.9082C143.873 71.5666 143.495 73.0728 144.427 73.4144C152.848 76.463 162.233 76.5872 170.737 73.7922C171.684 73.4817 171.249 71.991 170.296 72.3016Z" fill="#7A341C"/>
    <path d="M61.0765 71.0076C68.265 74.7549 76.5307 76.1421 84.553 75.0085C85.5422 74.8688 85.5577 76.4216 84.5789 76.5613C76.2924 77.7259 67.7315 76.2249 60.3151 72.3585C59.4295 71.8979 60.1908 70.5418 61.0765 71.0024V71.0076Z" fill="#7A341C"/>
    <path d="M57.8655 75.6089C66.2348 78.0002 75.2152 80.5156 83.8228 77.7828C84.7757 77.4774 85.2159 78.9681 84.263 79.2734C75.381 82.0943 66.1209 79.584 57.4771 77.1151C56.5189 76.8408 56.897 75.3346 57.8655 75.6089Z" fill="#7A341C"/>
    <path d="M61.8949 81.2868C70.2487 83.7195 79.2757 83.2588 87.3498 80.0187C88.2769 79.6461 88.7067 81.1419 87.7901 81.5094C79.4829 84.8426 70.1089 85.2929 61.5117 82.793C60.5536 82.5135 60.9368 81.0073 61.9001 81.2868H61.8949Z" fill="#7A341C"/>
    <path d="M129.237 40.7599C116.885 35.9722 102.938 35.5168 90.2442 39.2486C86.6811 40.2941 83.2215 41.6864 79.9173 43.3737C79.2958 43.6895 79.1404 44.5849 79.4822 45.1542C79.8655 45.7857 80.6371 45.9047 81.2638 45.589C92.5437 39.8334 105.781 38.0064 118.221 40.32C121.764 40.9773 125.239 41.9659 128.595 43.2702C129.247 43.5238 130.014 42.9597 130.169 42.3386C130.361 41.5932 129.895 41.0187 129.237 40.7651V40.7599Z" fill="#7A341C"/>
    <path d="M127.046 22.722C122.976 29.4351 120.376 36.9867 119.454 44.7867C119.19 47.0072 119.076 49.238 119.091 51.4739C119.096 52.4677 120.65 52.5764 120.64 51.5775C120.572 41.7537 123.234 32.0023 128.336 23.5967C128.854 22.7427 127.569 21.8732 127.046 22.7272V22.722Z" fill="#7A341C"/>
    <path d="M127.772 29.3523C124.7 33.9433 122.712 39.1605 121.909 44.6211C121.764 45.6097 123.318 45.708 123.457 44.7246C124.219 39.5436 126.145 34.5799 129.056 30.227C129.61 29.3937 128.326 28.5241 127.766 29.3575L127.772 29.3523Z" fill="#7A341C"/>
    <path d="M89.1521 45.5061C86.9303 39.8852 83.0563 34.9888 78.1207 31.5003C77.3024 30.9206 76.4272 32.2042 77.2455 32.7839C81.9791 36.1275 85.6303 40.8065 87.7589 46.1894C88.1266 47.1158 89.5198 46.4326 89.1521 45.5061Z" fill="#7A341C"/>
    <path d="M83.6776 31.7746C83.0716 30.9775 81.9011 31.9972 82.5071 32.7942C86.3862 37.9028 89.4263 43.648 91.4357 49.74C91.5704 50.1437 91.8915 50.4388 92.3421 50.3611C92.715 50.2938 93.093 49.8539 92.9635 49.4553C90.8609 43.0839 87.7431 37.1213 83.6827 31.7798L83.6776 31.7746Z" fill="#7A341C"/>
    <path d="M115.274 68.0781C114.901 67.985 114.389 68.2179 114.327 68.6371C114.026 70.7644 113.674 72.8813 113.265 74.9879C113.187 75.3968 113.399 75.8264 113.824 75.9351C114.213 76.0334 114.689 75.7902 114.772 75.3761C115.181 73.2695 115.533 71.1526 115.834 69.0253C115.891 68.6112 115.715 68.192 115.274 68.0781Z" fill="#7A341C"/>
    <path d="M117.316 76.6959C116.3 78.8439 115.285 81.0436 113.856 82.9587C112.711 84.4908 110.909 86.1315 108.837 85.4949C107.791 85.174 107.346 84.2734 107.061 83.2848C106.714 82.0685 106.476 80.8056 106.31 79.5478C105.973 76.9547 105.968 74.315 106.31 71.7219C109.236 74.667 113.136 77.5603 117.388 76.5769C117.362 76.6131 117.336 76.6545 117.316 76.7011V76.6959Z" fill="#F47E65"/>
    <path d="M106.351 79.8118C106.511 80.9816 106.739 82.1513 107.06 83.2796C107.345 84.2682 107.791 85.1688 108.837 85.4897C110.872 86.116 112.643 84.5477 113.788 83.0416C112.089 80.3553 109.407 79.6721 106.346 79.8067L106.351 79.8118Z" fill="#FBCBBF"/>
    <path d="M117.186 76.2767C115.068 76.6959 112.784 75.9144 110.842 75.1173C110.759 75.0862 110.681 75.0448 110.603 75.0138C110.603 75.0034 110.608 74.9879 110.614 74.9775C110.707 74.5842 110.474 74.1183 110.054 74.0303C109.806 73.9786 109.547 74.0407 109.355 74.196C109.21 73.9734 108.956 73.813 108.687 73.8285C108.62 73.8285 108.558 73.844 108.501 73.8647C107.739 73.3213 107.076 72.6587 106.605 71.8203C106.118 70.9507 104.787 71.753 105.279 72.6277C105.921 73.7716 106.859 74.6463 107.931 75.345C107.931 75.6763 107.931 76.0075 107.931 76.3388C107.931 76.6131 107.931 76.8926 107.952 77.1721C107.962 77.3791 108.003 77.5758 108.112 77.7518C108.278 78.0158 108.568 78.1762 108.879 78.171C109.36 78.1659 109.635 77.8139 109.811 77.4102C109.935 77.1255 110.049 76.8305 110.158 76.5406C110.158 76.5303 110.163 76.5148 110.168 76.5044C110.194 76.5148 110.22 76.5303 110.246 76.5406C111.069 76.8771 111.914 77.1876 112.778 77.4309C112.571 78.1089 112.473 78.818 112.478 79.5219C112.478 79.7704 112.602 79.9826 112.794 80.1275C112.97 80.2621 113.255 80.3501 113.472 80.2569C113.747 80.1379 113.954 80.0136 114.182 79.8118C114.353 79.6565 114.488 79.4702 114.622 79.2838C114.809 79.0251 114.969 78.7456 115.15 78.4868C115.218 78.3988 115.295 78.3211 115.378 78.2435C115.435 78.2073 115.487 78.1659 115.549 78.1348C115.637 78.0934 115.715 78.0106 115.777 77.9174C116.393 77.9329 117.01 77.8864 117.626 77.7673C118.605 77.5758 118.165 76.0852 117.186 76.2767Z" fill="white"/>
    <path d="M117.315 76.6959C116.3 78.8439 115.285 81.0437 113.856 82.9587C112.711 84.4908 110.909 86.1315 108.837 85.4949C107.791 85.174 107.346 84.2734 107.061 83.2848C106.714 82.0685 106.476 80.8056 106.31 79.5478C105.973 76.9547 105.968 74.315 106.31 71.7219C106.439 70.7437 104.937 70.3452 104.803 71.3337C104.492 73.6577 104.414 76.0024 104.621 78.3419C104.725 79.522 104.896 80.6969 105.129 81.8563C105.336 82.8863 105.554 83.9525 106.009 84.9048C106.838 86.6439 108.692 87.3944 110.541 87.0994C112.437 86.7992 113.913 85.438 115.031 83.9577C116.533 81.9598 117.61 79.7031 118.672 77.4516C119.097 76.551 117.745 75.785 117.315 76.6908V76.6959Z" fill="#7A341C"/>
    <path d="M118.035 74.7498C113.581 76.4682 109.588 72.9331 106.745 69.9362C106.056 69.2064 104.979 70.3296 105.668 71.0542C108.889 74.4548 113.478 78.171 118.475 76.2404C119.402 75.8833 118.972 74.3875 118.035 74.7498Z" fill="#7A341C"/>
    <path d="M176.941 97.1198C174.575 91.6851 169.598 87.9275 164.061 86.1056C159.183 84.5011 150.912 83.1398 148.244 88.9471C148.151 89.149 148.099 89.3612 148.079 89.5786C147.286 89.796 146.494 90.0185 145.702 90.2359C142.977 89.8943 140.279 90.0548 137.596 90.4481C137.477 90.9243 137.141 91.3487 136.529 91.5247C131.941 92.8704 127.243 93.6364 122.505 94.242C121.469 94.3766 120.407 94.5422 119.34 94.7079C118.553 94.9201 117.771 95.1271 116.984 95.3393C116.197 95.3859 115.409 95.4169 114.622 95.4532C113.975 95.567 113.333 95.6861 112.685 95.7948C102.4 97.508 91.995 98.4138 81.5697 98.4448C81.0051 98.4448 80.6012 98.2016 80.3526 97.8496C79.2598 98.0204 78.1618 98.1809 77.0639 98.3206C74.6349 98.6312 71.8279 98.2947 69.4507 99.0918C69.2228 98.9986 68.9846 98.921 68.736 98.8641C66.3847 98.3465 64.1474 99.599 62.9407 101.607C61.3766 104.206 61.9929 107.177 62.8889 109.894C62.6507 110.691 62.8475 111.628 63.4793 112.156C63.1271 116.881 63.0494 121.607 63.2514 126.343C63.267 126.658 63.3602 126.974 63.5104 127.269C63.3757 128.392 64.0283 129.629 65.4888 129.629H94.3463C94.5794 129.666 94.8124 129.702 95.0455 129.738C98.9453 130.375 103.959 131.736 107.889 130.892C111.815 130.049 110.785 124.868 111.152 121.881C111.411 119.769 111.862 117.673 112.571 115.665C112.784 115.059 113.265 113.118 113.918 112.658C114.736 112.083 117.067 112.797 117.957 112.937C118.672 113.051 119.884 113.077 120.443 113.569C121.324 114.34 120.697 114.583 120.293 115.551C119.739 116.881 119.579 118.258 120.604 119.433C121.769 120.768 123.753 120.577 125.332 120.572C127.917 120.561 130.501 120.551 133.085 120.546C134.401 120.546 135.711 120.598 136.97 120.546C137.229 120.763 137.524 120.934 137.845 121.037C142.941 122.611 147.929 121.141 153.009 120.582C153.154 120.711 153.31 120.825 153.455 120.949C152.662 118.682 152.103 116.358 151.73 113.998C151.046 113.822 150.363 113.781 149.679 113.833C149.638 113.501 149.596 113.165 149.544 112.834C149.487 112.451 149.446 112.073 149.26 111.726C149.037 111.312 148.612 111.012 148.146 110.934C148.136 110.774 148.12 110.613 148.099 110.453C148.079 110.261 148.022 110.059 147.939 109.878C148.229 109.495 148.529 109.112 148.856 108.75C148.555 108.31 148.446 107.735 148.747 107.13C149.099 106.416 149.55 105.758 150 105.101C150.244 104.366 150.632 103.693 151.16 103.113C151.186 102.363 151.228 101.618 151.274 100.872C154.361 101.845 156.95 104.05 159.923 105.339C162.88 106.618 166.205 107.622 169.458 107.704C172.254 107.777 174.74 106.4 176.626 104.387C178.599 102.28 178.008 99.5318 176.957 97.1198H176.941ZM111.67 102.187C110.816 102.275 109.956 102.353 109.101 102.43C107.17 102.601 105.238 102.746 103.301 102.865C104.404 102.699 105.502 102.503 106.6 102.265C108.413 101.871 110.215 101.426 112.012 100.955C111.784 101.328 111.67 101.763 111.665 102.182L111.67 102.187ZM132.521 98.3413C132.474 98.3931 132.433 98.4552 132.386 98.5121C131.578 98.6105 130.776 98.7088 129.968 98.7968C130.947 98.5121 131.925 98.2326 132.904 97.9583C132.775 98.0877 132.645 98.2119 132.521 98.3413Z" fill="#BFE7FB"/>
    <path d="M129.88 121.845C130.341 120.846 130.615 119.769 130.636 118.662C130.693 115.919 129.191 113.165 127.456 111.126C126.135 109.573 124.152 108.574 122.236 108.755C120.257 107.616 117.082 108.341 114.814 109.304C113.965 109.112 113.032 109.366 112.644 110.251C111.272 113.388 110.37 117.104 110.888 120.582C110.422 121.778 109.946 122.921 109.583 123.951C109.184 125.075 109.832 125.955 110.717 126.317C110.717 126.369 110.707 126.426 110.702 126.477C110.692 126.664 110.692 126.855 110.702 127.047C110.236 127.699 110.521 128.718 111.401 129.055C114.048 130.069 116.943 129.469 119.594 128.77C120.718 128.889 121.868 128.869 122.992 128.713C123.851 128.594 125.027 128.382 126.198 128.025C128.031 126.819 129.481 125.08 130.512 123.097C130.444 122.875 130.356 122.642 130.237 122.399C130.134 122.192 130.009 122.011 129.875 121.845H129.88Z" fill="#FDC152"/>
    <path d="M61.1853 112.942C60.5431 110.706 59.7248 108.45 58.7408 106.255C56.1305 102.663 52.8108 99.6301 49.3874 96.7523C45.3737 93.3828 40.3656 88.9161 34.9224 88.3778C34.3683 88.3209 33.9746 88.0414 33.7209 87.6687C27.8789 88.1966 22.1199 89.5372 17.003 92.5392C11.4562 95.7896 6.12184 101.468 5.39677 108.129C4.55259 115.851 11.1144 119.754 18.0284 120.152C21.8609 120.375 25.6157 119.692 29.3083 118.724C31.209 118.227 33.089 117.647 34.969 117.088C35.3885 116.964 35.8961 116.778 36.445 116.576C37.4291 117.58 38.3924 118.594 39.3453 119.63C41.1942 122.844 43.2451 125.949 45.4876 128.91C45.8139 129.345 46.2334 129.562 46.6995 129.526C46.9015 129.966 47.1035 130.406 47.3055 130.846H62.7027C62.7597 130.432 62.8011 130.018 62.8425 129.609C63.3812 123.988 62.739 118.356 61.1853 112.942Z" fill="#FDC152"/>
    <path d="M43.4372 97.2647C44.1519 93.7193 41.842 90.5206 38.7605 89.0299C30.7848 85.1739 20.8255 90.1945 14.5693 95.2047C12.3475 96.9852 10.0739 99.2419 8.7584 101.892C6.76966 103.191 5.53705 105.624 5.78564 108.072C6.1171 111.333 8.3389 113.9 11.0527 115.551C12.3164 116.84 13.8287 117.896 15.4704 118.636C19.971 120.665 25.1086 120.499 29.749 119.029C30.443 118.812 30.7019 118.211 30.6398 117.647C31.08 117.554 31.5151 117.445 31.9346 117.3C32.0744 117.399 32.2349 117.492 32.411 117.564C35.7878 119.014 39.6202 117.119 40.8269 113.683C41.4174 112 41.2361 110.37 40.5887 108.9C41.3345 108.388 41.9663 107.679 42.4014 106.778C43.5149 104.449 43.0643 102.109 41.7592 100.256C42.5723 99.511 43.1834 98.5069 43.4268 97.2751L43.4372 97.2647Z" fill="#FFEBB4"/>
    <path d="M37.2375 121.136C39.5991 124.355 41.9193 127.606 44.2447 130.851H48.072C45.4825 127.264 42.8982 123.672 40.3086 120.085C37.9988 116.886 36.5072 116.281 32.5971 116.643C25.305 117.321 16.2158 119.93 10.0061 114.516C2.89016 108.31 9.31734 99.3765 15.237 95.3445C20.7578 91.5816 32.0843 85.0807 38.3717 90.4171C39.8995 91.711 41.8365 89.2835 40.3086 87.9896C35.2694 83.7143 27.7806 85.6449 22.296 87.9689C16.2987 90.5102 9.71612 94.2834 6.19438 99.951C3.01964 105.07 2.86427 111.804 7.29752 116.229C11.8188 120.742 18.5826 121.317 24.6058 120.737C26.9001 120.515 29.1737 120.158 31.4629 119.894C33.8504 119.619 35.6889 119.04 37.2271 121.141L37.2375 121.136Z" fill="#7A341C"/>
    <path d="M262.608 129.35H8.23999C6.57235 129.35 6.57235 131.938 8.23999 131.938H262.608C264.276 131.938 264.276 129.35 262.608 129.35Z" fill="#7A341C"/>
    <path d="M176.574 120.582H130.693C130.677 120.66 130.652 120.742 130.62 120.825C130.299 121.602 130.02 122.394 129.709 123.17H176.579C178.247 123.17 178.247 120.582 176.579 120.582H176.574Z" fill="#7A341C"/>
    <path d="M189.196 70.8213C185.534 83.2278 182.344 95.7689 179.645 108.419C178.879 112.006 176.227 124.314 175.544 127.916C175.414 128.599 175.735 129.314 176.45 129.51C177.082 129.686 177.911 129.298 178.045 128.605C180.469 115.898 185.306 94.5733 188.698 82.0891C189.662 78.554 190.661 75.0241 191.697 71.5097C192.168 69.9103 189.672 69.2271 189.201 70.8213H189.196Z" fill="#7A341C"/>
    <path d="M275.193 64.7759C264.4 63.6061 253.555 62.9281 242.695 62.7573C231.839 62.5865 220.974 62.9177 210.15 63.7459C204.059 64.2117 197.984 64.8432 191.925 65.6247C191.231 65.7127 190.63 66.1578 190.63 66.9187C190.63 67.5501 191.225 68.3006 191.925 68.2126C202.692 66.8203 213.521 65.9249 224.371 65.5316C235.221 65.1382 246.087 65.2469 256.927 65.8576C262.458 66.1682 267.979 66.6185 273.489 67.193C268.968 82.2341 264.017 97.1509 258.625 111.902C257.041 116.245 255.414 120.572 253.757 124.883C253.508 125.535 254.037 126.301 254.663 126.477C255.394 126.679 256.005 126.229 256.259 125.572C262.08 110.432 267.45 95.122 272.355 79.6668C273.753 75.2622 275.11 70.842 276.436 66.4166C276.7 65.5367 275.991 64.8639 275.188 64.7811L275.193 64.7759Z" fill="#7A341C"/>
    <path d="M149.322 87.1252C149.969 86.5507 150.746 86.6283 151.311 87.0113C151.357 86.9751 151.404 86.944 151.45 86.9078C151.181 86.5144 150.715 86.2867 150.119 86.4886C139.383 90.1376 128.352 92.8963 117.165 94.7285C106.093 96.5453 94.8644 97.4303 83.6466 97.4096C77.2505 97.3993 70.8544 97.0836 64.4842 96.478C63.785 96.4107 63.1895 97.1198 63.1895 97.7719C63.1895 98.5276 63.785 98.9986 64.4842 99.0659C75.8107 100.148 87.2253 100.287 98.5726 99.4852C109.956 98.6829 121.277 96.9542 132.376 94.3041C136.96 93.212 141.502 91.9543 145.997 90.5516C146.991 89.2939 148.115 88.1966 149.322 87.1252Z" fill="#7A341C"/>
    <path d="M112.214 105.458C101.359 106.498 90.6069 108.729 80.2385 112.109C77.3382 113.051 74.4742 114.091 71.6361 115.209C70.0927 115.82 70.968 118.258 72.5217 117.642C82.4499 113.714 92.7976 110.857 103.347 109.185C105.74 108.807 108.143 108.491 110.556 108.227C109.396 112.466 108.464 125.018 107.827 129.371C107.584 131.017 110.127 131.503 110.37 129.857C111.095 124.914 112.188 111.783 113.586 106.99C113.824 106.178 112.985 105.386 112.209 105.458H112.214Z" fill="#7A341C"/>
    <path d="M212.066 21.1434C212.962 18.307 212.951 15.3568 211.952 12.5463C211.061 10.0463 209.414 7.80519 207.374 6.11786C202.754 2.30325 196.244 1.71837 190.661 3.45229C187.828 4.33218 185.145 5.87459 183.167 8.10539C181.375 10.124 180.246 12.7223 179.832 15.3775C179.36 18.4157 179.904 21.5109 181.349 24.223C182.69 26.7385 184.721 29.1246 184.995 32.0593C185.15 33.7155 187.714 33.3636 187.559 31.7021C187.32 29.166 185.984 26.9921 184.689 24.8596C183.457 22.8255 182.457 20.7966 182.271 18.3898C182.095 16.0917 182.644 13.7367 183.752 11.7181C184.933 9.57016 186.86 7.92941 189.05 6.86318C193.675 4.61168 199.553 4.31666 204.09 6.9667C208.099 9.30619 210.75 13.9489 210.02 18.6227C208.974 25.2841 202.733 29.3885 197.554 32.815C196.161 33.7363 197.741 35.7911 199.123 34.8749C204.375 31.3968 210.067 27.4476 212.061 21.1382L212.066 21.1434Z" fill="#7A341C"/>
    <path d="M196.166 36.9867C196.254 36.262 195.731 35.6668 195.037 35.5426C192.044 35.0198 189.154 34.0934 186.398 32.8097C185.767 32.5147 184.964 32.8874 184.71 33.5137C184.43 34.1865 184.777 34.906 185.414 35.201C188.372 36.5829 191.51 37.5508 194.726 38.1098C195.415 38.2289 196.088 37.6492 196.171 36.9815L196.166 36.9867Z" fill="#7A341C"/>
    <path d="M185.917 41.971C185.86 41.8468 185.777 41.7329 185.689 41.6346C185.917 41.3499 186.114 41.0342 186.259 40.6926C186.585 39.9421 186.051 38.9846 185.218 38.9121C185.135 38.9069 185.042 38.881 184.959 38.8707C184.917 38.8552 184.876 38.8396 184.84 38.8241C184.814 38.8138 184.777 38.7931 184.741 38.7724C184.679 38.7258 184.617 38.6792 184.555 38.6326C184.534 38.6067 184.508 38.586 184.487 38.5601C184.472 38.5394 184.456 38.5136 184.436 38.4929C184.425 38.4618 184.41 38.41 184.389 38.3686C184.389 38.3376 184.384 38.3065 184.373 38.2755C184.384 38.2651 184.394 38.2496 184.405 38.2341C184.394 38.2444 184.389 38.2444 184.384 38.2496C184.389 38.2341 184.394 38.2185 184.399 38.2082C184.405 38.203 184.41 38.1978 184.42 38.1875C184.425 38.1875 184.436 38.1771 184.446 38.172C184.446 38.172 184.441 38.1823 184.436 38.1823C184.436 38.1823 184.441 38.172 184.446 38.172C184.472 38.1564 184.493 38.1409 184.518 38.1202C184.534 38.115 184.544 38.1098 184.56 38.1047C184.565 38.1047 184.57 38.1047 184.575 38.1047C185.124 38.4152 185.891 38.3583 186.279 37.8096C186.668 37.261 186.642 36.4122 186.051 35.9929C185.275 35.4443 184.249 35.3459 183.395 35.7962C182.561 36.2362 181.898 37.0074 181.784 37.9753C181.67 38.9794 182.115 39.911 182.835 40.5632C182.799 40.5684 182.763 40.5787 182.732 40.5839C182.276 40.6564 181.888 40.941 181.711 41.3706C181.52 41.8313 181.639 42.2402 181.877 42.6491C182.525 43.7567 184.068 44.1449 185.207 43.6635C185.834 43.3996 186.202 42.6077 185.906 41.971H185.917Z" fill="#7A341C"/>
    <path d="M184.451 38.1926C184.451 38.1926 184.425 38.2237 184.415 38.2444C184.425 38.234 184.436 38.2133 184.451 38.1926Z" fill="#7A341C"/>
    <path d="M189.822 44.911C189.372 44.3727 188.584 44.2277 188.01 44.6625C187.973 44.6884 187.937 44.7143 187.901 44.735C187.818 44.7764 187.73 44.8126 187.642 44.8437C187.528 44.8644 187.414 44.8851 187.295 44.8903C187.15 44.8851 187.005 44.8644 186.865 44.8385C186.736 44.7971 186.606 44.7402 186.482 44.678C186.389 44.6159 186.306 44.5486 186.223 44.4762C186.13 44.3675 186.047 44.2536 185.974 44.1294C185.819 43.8603 185.394 43.6636 185.104 43.6273C184.793 43.5911 184.405 43.6791 184.162 43.881C183.903 44.0983 183.69 44.4037 183.659 44.7505C183.659 44.8644 183.659 44.9731 183.659 45.0869C183.69 45.3095 183.773 45.5114 183.913 45.6925C184.462 46.6397 185.508 47.1987 186.549 47.4057C187.59 47.6128 188.74 47.354 189.589 46.7122C190.128 46.3033 190.283 45.4337 189.833 44.9006L189.822 44.911Z" fill="#7A341C"/>
    <path d="M196.389 46.1169C196.503 45.7132 196.565 45.3043 196.477 44.885C196.389 44.471 196.218 44.0621 195.975 43.7153C196.016 43.5497 196.031 43.3789 196.006 43.2236C195.949 42.9027 195.793 42.5766 195.519 42.3799C195.224 42.1729 194.908 42.0953 194.545 42.1211C193.836 42.1729 193.126 42.2247 192.422 42.2816C192.121 42.3023 191.748 42.5249 191.578 42.7681C191.407 43.0114 191.313 43.2754 191.319 43.5704C191.319 44.1087 191.676 44.6107 192.183 44.7867C191.904 44.9161 191.629 45.1749 191.521 45.4647C191.272 46.1583 191.567 46.8415 192.225 47.1521C192.701 47.3798 193.219 47.5661 193.742 47.6334C194.416 47.7214 195.177 47.5817 195.7 47.121C196.011 46.8519 196.28 46.5154 196.394 46.1117L196.389 46.1169Z" fill="#7A341C"/>
    <path d="M202.806 16.2263C201.584 15.657 200.237 16.5006 199.145 17.0234C198.984 17.101 198.824 17.189 198.663 17.2666C199.155 15.9572 199.647 14.6477 200.124 13.3278C200.486 12.3289 199.492 11.1384 198.43 11.6405C196.317 12.6394 194.825 14.3216 193.588 16.2056C193.386 15.5483 193.173 14.9013 192.935 14.2543C192.635 13.4469 192.365 12.4427 191.687 11.863C190.962 11.2523 189.947 11.2989 189.242 11.8993C188.631 12.4169 188.352 13.2554 188.119 13.9955C187.86 14.8029 187.663 15.6363 187.559 16.4747C187.357 18.1103 187.466 19.7925 187.891 21.3866C188.072 22.0595 188.6 22.5978 189.351 22.4891C189.978 22.4011 190.636 21.7075 190.454 21.0295C190.102 19.7148 189.962 18.3639 190.107 17.0079C190.169 16.3971 190.273 15.7812 190.449 15.1911C190.459 15.1549 190.475 15.1238 190.485 15.0876C190.672 15.5793 190.848 16.0762 191.008 16.5783C191.34 17.5876 191.62 18.6124 191.858 19.6527C192.158 20.957 193.707 21.102 194.339 19.9684C194.799 19.1351 195.281 18.2708 195.83 17.4426C195.566 18.1362 195.302 18.8298 195.033 19.5233C194.825 20.0564 194.981 20.6879 195.437 21.0399C195.929 21.4229 196.509 21.3401 197.016 21.045C198.166 20.3825 199.347 19.7769 200.553 19.2179C200.279 19.5026 199.968 19.7562 199.652 19.984C198.295 20.957 199.87 23.0119 201.221 22.044C202.2 21.3452 203.133 20.3877 203.64 19.2852C204.127 18.219 204.003 16.7749 202.817 16.2263H202.806Z" fill="white"/>
    <path d="M175.134 4.95845C174.109 4.11996 173.078 3.28147 172.053 2.44298C171.53 2.01339 170.634 2.11173 170.235 2.67072C169.821 3.25559 169.904 4.0268 170.463 4.48745C171.488 5.32594 172.519 6.16443 173.544 7.00292C174.068 7.43252 174.964 7.33417 175.362 6.77518C175.777 6.19031 175.694 5.4191 175.134 4.95845Z" fill="#FFE56C"/>
    <path d="M173.161 12.1632C173.187 11.8371 173.125 11.48 172.907 11.2212C172.674 10.9417 172.39 10.7916 172.037 10.7192C171.157 10.5484 170.271 10.3776 169.391 10.2067C169.085 10.1498 168.692 10.2792 168.448 10.4604C168.195 10.657 167.972 11.009 167.946 11.3299C167.92 11.656 167.982 12.0131 168.2 12.2719C168.433 12.5514 168.718 12.7015 169.07 12.774C169.95 12.9448 170.836 13.1156 171.716 13.2864C172.022 13.3433 172.415 13.2139 172.659 13.0328C172.913 12.8361 173.135 12.4841 173.161 12.1632Z" fill="#FFE56C"/>
    <path d="M173.519 17.3029C173.379 16.9975 173.141 16.7232 172.814 16.6041C172.493 16.4903 172.141 16.4644 171.825 16.6041C171.685 16.6663 171.545 16.7128 171.4 16.7542C171.167 16.806 170.929 16.8371 170.691 16.8474C170.504 16.8371 170.323 16.8215 170.142 16.7905C169.831 16.7335 169.443 16.8578 169.199 17.0441C168.946 17.2408 168.723 17.5927 168.697 17.9136C168.671 18.2397 168.733 18.5968 168.951 18.8556C169.179 19.13 169.469 19.2904 169.821 19.3577C170.018 19.3939 170.22 19.4146 170.422 19.4198C170.727 19.4302 171.043 19.425 171.349 19.3888C171.602 19.3577 171.841 19.3008 172.089 19.2335C172.338 19.1662 172.581 19.0886 172.819 18.985C173.125 18.8505 173.389 18.5968 173.519 18.2811C173.638 17.9861 173.653 17.5824 173.519 17.2925V17.3029Z" fill="#FFE56C"/>
    <path d="M223.6 26.1433L220.627 24.9166C220 24.6578 219.172 24.9632 218.939 25.6205C218.701 26.283 218.97 27.0335 219.643 27.3079L222.616 28.5345C223.243 28.7933 224.071 28.488 224.304 27.8306C224.542 27.1681 224.273 26.4176 223.6 26.1433Z" fill="#FFE56C"/>
    <path d="M220.845 33.6741C220.788 33.5809 220.736 33.4826 220.679 33.3894C220.549 33.2186 220.384 33.0944 220.197 33.0064C219.695 32.7062 219.229 32.3491 218.804 31.9454C218.643 31.7797 218.488 31.6089 218.343 31.4226C218.131 31.1586 217.815 30.962 217.473 30.9206C217.162 30.8843 216.774 30.9723 216.53 31.1742C216.002 31.6141 215.831 32.4216 216.282 32.9857C216.67 33.4723 217.116 33.9226 217.592 34.3211C218.074 34.7248 218.607 35.0561 219.161 35.3614C219.436 35.5115 219.876 35.4753 220.151 35.3614C220.446 35.2372 220.741 34.9629 220.85 34.6575C220.964 34.3418 220.995 33.9795 220.85 33.6689L220.845 33.6741Z" fill="#FFE56C"/>
    <path d="M216.862 41.8002C216.401 40.8738 215.94 39.9473 215.48 39.0156C215.324 38.7051 215.107 38.4514 214.775 38.3169C214.48 38.1978 214.076 38.1823 213.786 38.3169C213.48 38.4566 213.206 38.6947 213.087 39.0208C212.973 39.3313 212.937 39.704 213.087 40.0094C213.548 40.9359 214.009 41.8623 214.47 42.794C214.625 43.1045 214.843 43.3582 215.174 43.4927C215.469 43.6118 215.873 43.6273 216.163 43.4927C216.469 43.353 216.743 43.1149 216.862 42.7888C216.976 42.4783 217.013 42.1056 216.862 41.8002Z" fill="#FFE56C"/>
    <path d="M234.708 93.9367C232.875 93.1758 230.674 93.5433 228.84 94.1386C227.437 94.594 226.09 95.3445 225.08 96.4108C223.677 93.916 220.699 92.239 217.876 93.4243C216.255 94.1023 214.878 95.5619 214.572 97.3269C214.241 99.2782 215.271 101.048 216.685 102.311C218.436 103.88 220.652 104.935 222.864 105.66C223.397 105.831 223.988 105.375 224.096 104.868C224.226 104.273 223.837 103.812 223.304 103.636C220.922 102.86 214.655 99.9976 217.089 96.5712C217.975 95.3238 219.596 94.7752 221.025 95.3549C222.543 95.9708 223.516 97.3994 223.832 98.9676C224.008 99.8424 225.396 99.8786 225.738 99.1126C226.515 97.3476 228.25 96.4366 230.037 95.9501C231.533 95.5412 234.097 95.0754 234.931 96.83C235.775 98.6105 234.46 100.469 233.087 101.509C231.42 102.772 229.446 103.688 227.478 104.433C226.976 103.729 225.557 103.993 225.588 105.096C225.603 105.557 225.733 105.95 225.987 106.338C226.23 106.716 226.753 106.902 227.183 106.747C229.42 105.955 231.673 104.966 233.652 103.647C235.325 102.529 236.878 100.929 237.173 98.8589C237.458 96.8714 236.671 94.7493 234.713 93.9419L234.708 93.9367Z" fill="#7A341C"/>
    <path d="M229.213 86.3748H229.203C229.291 86.3955 229.369 86.3179 229.213 86.3748Z" fill="#7A341C"/>
    <path d="M230.705 84.615C230.078 84.2268 229.281 84.2113 228.587 84.4028C226.883 84.879 226.287 86.6543 225.95 88.1967C225.909 88.383 225.93 88.5745 225.992 88.7557C225.754 89.0041 225.578 89.3095 225.474 89.6459C225.246 90.3913 225.474 91.2246 226.049 91.7525C226.603 92.2597 227.411 92.472 228.152 92.3529C228.98 92.2183 229.69 91.7629 230.213 91.1055C230.674 90.5258 231.026 89.8633 231.29 89.1749C231.59 88.3934 231.844 87.5756 231.844 86.7267C231.844 85.8676 231.44 85.0653 230.705 84.6098V84.615ZM229.773 86.8458C229.773 86.8458 229.762 86.9597 229.762 86.9959C229.762 87.0114 229.762 87.0218 229.762 87.027C229.752 87.0942 229.741 87.1667 229.726 87.234C229.695 87.3789 229.659 87.529 229.622 87.6739C229.591 87.7982 229.555 87.9172 229.514 88.0362C229.498 88.0776 229.488 88.1191 229.472 88.1605C229.462 88.1863 229.451 88.2174 229.446 88.2329C229.332 88.5124 229.213 88.7867 229.079 89.0559C229.022 89.1698 228.959 89.2836 228.892 89.3975C228.866 89.4389 228.794 89.5528 228.778 89.5838C228.721 89.6666 228.659 89.7443 228.592 89.8219C228.545 89.8737 228.504 89.9254 228.452 89.972C228.442 89.9824 228.41 90.0134 228.379 90.0393C228.343 90.0704 228.286 90.1169 228.281 90.1169C228.24 90.148 228.193 90.179 228.146 90.2049C228.131 90.2153 228.105 90.236 228.074 90.2515C228.063 90.2515 228.058 90.2515 228.038 90.2567C227.996 90.267 227.95 90.2826 227.903 90.2981C227.861 90.2981 227.82 90.3084 227.779 90.3084C227.753 90.3084 227.722 90.3084 227.696 90.3084C227.675 90.3084 227.649 90.3033 227.628 90.2981C227.592 90.2929 227.561 90.2826 227.525 90.2722C227.52 90.2722 227.52 90.2722 227.514 90.2722C227.504 90.267 227.494 90.2567 227.489 90.2515C227.489 90.2463 227.483 90.2308 227.473 90.2205C227.96 90.1325 228.374 89.6511 228.328 89.1491C228.302 88.8851 228.188 88.6522 228.012 88.4762C228.053 88.2847 228.1 88.088 228.146 87.9017C228.177 87.793 228.203 87.6895 228.24 87.5808C228.245 87.5601 228.255 87.5394 228.26 87.5187C228.26 87.5342 228.302 87.4048 228.317 87.3686C228.364 87.2547 228.416 87.146 228.473 87.0373C228.493 87.0011 228.612 86.8199 228.612 86.8096C228.659 86.7475 228.711 86.6853 228.763 86.6232C228.763 86.6232 228.778 86.6025 228.804 86.5767C228.83 86.5559 228.851 86.5404 228.877 86.5249C228.913 86.499 228.954 86.4783 228.991 86.4524C229.006 86.4421 229.016 86.4369 229.022 86.4265C229.089 86.4007 229.172 86.38 229.203 86.3696C229.192 86.3696 229.182 86.3696 229.172 86.3644C229.182 86.3696 229.301 86.3489 229.306 86.3437C229.348 86.3437 229.394 86.3386 229.441 86.3334C229.441 86.3334 229.451 86.3334 229.457 86.3334C229.488 86.3437 229.539 86.3541 229.586 86.3644C229.565 86.3541 229.55 86.3386 229.55 86.3334C229.555 86.3334 229.565 86.3334 229.591 86.3489C229.602 86.3489 229.607 86.3593 229.617 86.3696C229.633 86.3696 229.638 86.3696 229.648 86.3696C229.648 86.3696 229.659 86.3696 229.664 86.3696H229.653C229.669 86.3851 229.679 86.3955 229.69 86.4007C229.7 86.4162 229.71 86.4369 229.721 86.4524C229.731 86.4783 229.741 86.5094 229.752 86.5352C229.757 86.5508 229.762 86.5611 229.767 86.5663C229.767 86.6025 229.767 86.6439 229.773 86.6595C229.773 86.7164 229.778 86.7682 229.778 86.8251L229.773 86.8458Z" fill="#7A341C"/>
    <path d="M229.654 86.3904C229.654 86.3904 229.638 86.3904 229.633 86.3904C229.679 86.4266 229.71 86.4577 229.654 86.3904Z" fill="#7A341C"/>
    <path d="M229.633 86.3903C229.633 86.3903 229.628 86.3903 229.622 86.3799C229.612 86.3799 229.597 86.3799 229.581 86.3748C229.597 86.3851 229.612 86.3903 229.633 86.3903Z" fill="#7A341C"/>
    <path d="M239.338 88.4192C238.877 87.9844 238.178 87.7619 237.546 87.824C237.168 87.8602 236.785 87.9689 236.474 88.1915C236.081 88.471 235.848 88.8384 235.708 89.2887C235.63 89.532 235.718 89.8736 235.858 90.0807C235.998 90.2877 236.251 90.4792 236.5 90.5206C237.028 90.6086 237.453 90.355 237.66 89.9047V89.915C237.66 89.915 237.66 89.9099 237.66 89.9047C237.66 89.9047 237.66 89.9047 237.665 89.9047C237.696 89.9047 237.728 89.9047 237.759 89.9047C237.795 89.9099 237.826 89.915 237.862 89.9254C237.878 89.9357 237.898 89.9409 237.914 89.9513C237.914 89.9513 237.919 89.9564 237.924 89.9616C237.94 89.9875 237.961 90.0134 237.976 90.0393C237.992 90.0755 238.002 90.1169 238.012 90.1583C238.023 90.2359 238.023 90.3084 238.023 90.386C238.002 90.5154 237.976 90.6448 237.94 90.769C237.893 90.8777 237.841 90.9864 237.779 91.09C237.634 90.9243 237.448 90.8053 237.23 90.769C236.655 90.6707 236.148 91.002 235.998 91.5609C235.858 92.0785 235.889 92.6168 236.034 93.1292C236.153 93.5381 236.64 93.8849 237.075 93.8331C237.893 93.7296 238.613 93.3311 239.152 92.71C239.623 92.1665 239.986 91.4678 240.058 90.7483C240.151 89.8995 239.965 89.0351 239.323 88.4347L239.338 88.4192Z" fill="#7A341C"/>
    <path d="M220.911 86.6129C220.32 86.0177 219.43 85.8883 218.648 86.1109C218.244 86.2247 217.845 86.4732 217.565 86.7889C217.218 87.1771 217.058 87.6636 217.058 88.176C217.058 88.6626 217.503 89.0974 217.979 89.1491C217.907 89.3251 217.866 89.5062 217.876 89.7236C217.891 90.0083 217.995 90.3137 218.171 90.5414C218.342 90.764 218.549 90.9607 218.808 91.0745C219.181 91.2402 219.569 91.2505 219.963 91.1522C220.864 90.9193 221.501 89.9565 221.646 89.0767C221.796 88.176 221.569 87.2651 220.916 86.6078L220.911 86.6129ZM219.114 88.2175C219.114 88.2175 219.119 88.1864 219.124 88.1657C219.145 88.1502 219.165 88.1346 219.191 88.1243C219.228 88.1088 219.264 88.0984 219.3 88.0881C219.336 88.0881 219.373 88.0881 219.409 88.0829C219.424 88.0829 219.435 88.0881 219.45 88.0932C219.45 88.0932 219.45 88.0932 219.456 88.0932C219.471 88.1088 219.487 88.1243 219.502 88.1346C219.523 88.1657 219.549 88.2019 219.569 88.233C219.585 88.2744 219.595 88.3158 219.611 88.3624C219.616 88.4297 219.621 88.5021 219.626 88.5694C219.626 88.5798 219.621 88.5953 219.621 88.6056C219.466 88.4918 219.279 88.409 219.088 88.3934C219.103 88.3365 219.119 88.2744 219.124 88.2123L219.114 88.2175Z" fill="#7A341C"/>
    <path d="M151.036 85.6191C146.401 88.4399 143.822 89.5527 139.186 92.3736C136.887 93.771 134.587 95.1737 132.288 96.5712C130.398 97.7202 128.435 98.921 126.14 98.8175C124.11 98.7243 122.085 97.6478 120.925 95.9708C119.972 94.594 117.978 95.7689 118.688 97.2751C119.325 98.6312 118.129 100.215 117 100.857C115.187 101.887 112.898 101.778 110.883 101.768C106.087 101.747 101.286 101.343 96.5579 100.546C93.8493 100.086 91.1613 99.5007 88.5045 98.7968C86.8938 98.3724 86.205 100.867 87.8157 101.292C93.0828 102.684 98.469 103.605 103.897 104.05C106.59 104.273 109.293 104.376 111.991 104.351C114.363 104.33 116.974 104.143 118.942 102.663C119.962 101.902 120.728 100.857 121.117 99.7078C122.023 100.339 123.038 100.821 124.131 101.1C126.581 101.732 128.973 101.266 131.206 100.158C133.697 98.921 136.032 97.3113 138.404 95.8673C140.921 94.3352 143.444 92.8032 145.961 91.2711C148.773 89.5631 149.524 89.5579 152.336 87.8499C153.755 86.9855 152.455 84.7443 151.031 85.6139L151.036 85.6191Z" fill="#7A341C"/>
    <path d="M60.6928 94.1023C58.9941 91.5144 57.6631 88.8126 56.6894 85.94C56.4667 85.2775 55.7986 84.8427 55.0943 85.0342C54.4469 85.2102 53.9653 85.9607 54.188 86.6284C55.2341 89.7184 56.6584 92.679 58.4503 95.4118C58.8336 95.9967 59.5949 96.24 60.2215 95.8777C60.8016 95.5361 61.0709 94.6924 60.6877 94.1075L60.6928 94.1023Z" fill="#7A341C"/>
    <path d="M64.6086 101.198C64.9763 99.5783 62.4801 98.8848 62.1123 100.51C60.2583 108.729 61.1542 117.156 62.1123 125.432C62.1952 126.125 62.651 126.726 63.4071 126.726C64.0441 126.726 64.7847 126.13 64.7019 125.432C63.7748 117.414 62.8115 109.169 64.6086 101.198Z" fill="#7A341C"/>
    <path d="M62.8061 113.476C60.0819 106.281 55.4259 99.8527 49.3509 95.1065C47.6004 93.74 45.7619 92.4978 43.8197 91.4161C42.3644 90.6035 41.0541 92.8394 42.5146 93.6521C48.833 97.1665 54.1156 102.394 57.7047 108.667C58.7146 110.432 59.5899 112.264 60.3098 114.164C60.5584 114.816 61.185 115.266 61.9049 115.07C62.5316 114.899 63.0598 114.133 62.8112 113.476H62.8061Z" fill="#7A341C"/>
    <path d="M123.293 108.005C119.688 107.171 115.949 107.86 112.401 108.631C110.775 108.983 111.464 111.478 113.09 111.126C117.984 110.065 124.411 109.04 127.726 113.843C129.16 115.913 129.585 118.45 128.881 120.872C128.187 123.242 126.467 125.007 124.339 126.177C121.879 127.528 119.061 128.128 116.342 128.703C114.711 129.05 115.405 131.545 117.031 131.198C122.661 130.007 128.917 128.185 131.149 122.259C133.443 116.162 129.538 109.444 123.293 108.005Z" fill="#7A341C"/>
    <path d="M104.917 110.536C104.761 110.267 104.45 110.013 104.145 109.94C103.813 109.863 103.441 109.884 103.145 110.07C102.845 110.261 102.674 110.51 102.55 110.841C102.047 112.176 101.757 113.564 101.618 114.982C101.586 115.292 101.783 115.686 101.996 115.898C102.218 116.12 102.591 116.291 102.912 116.276C103.249 116.26 103.596 116.151 103.829 115.898C104.072 115.634 104.176 115.344 104.207 114.982C104.217 114.863 104.233 114.744 104.248 114.625C104.404 113.564 104.668 112.528 105.046 111.524C105.16 111.229 105.072 110.789 104.917 110.525V110.536Z" fill="white"/>
    <path d="M102.975 118.165C102.752 117.942 102.379 117.772 102.058 117.787C101.721 117.803 101.374 117.911 101.141 118.165C100.898 118.429 100.789 118.724 100.763 119.081C100.706 119.909 100.649 120.737 100.592 121.565C100.572 121.881 100.753 122.259 100.971 122.482C101.193 122.704 101.566 122.875 101.887 122.859C102.224 122.844 102.571 122.735 102.804 122.482C103.047 122.218 103.156 121.923 103.182 121.565C103.239 120.737 103.296 119.909 103.353 119.081C103.374 118.765 103.192 118.388 102.975 118.165Z" fill="white"/>
    <path d="M102.975 124.749C102.923 124.588 102.835 124.448 102.706 124.335C102.587 124.21 102.452 124.117 102.291 124.065C102.136 123.983 101.97 123.946 101.794 123.952C101.458 123.967 101.111 124.076 100.877 124.329C100.81 124.417 100.743 124.505 100.676 124.593C100.556 124.795 100.499 125.013 100.499 125.246C100.437 125.83 100.375 126.41 100.313 126.995C100.308 127.171 100.344 127.342 100.427 127.492C100.479 127.652 100.567 127.792 100.696 127.906C100.815 128.03 100.95 128.123 101.111 128.175C101.266 128.258 101.432 128.294 101.608 128.289C101.944 128.273 102.291 128.165 102.524 127.911C102.592 127.823 102.659 127.735 102.726 127.647C102.846 127.445 102.903 127.228 102.903 126.995C102.965 126.41 103.027 125.83 103.089 125.246C103.094 125.07 103.058 124.899 102.975 124.749Z" fill="white"/>
    <path d="M177.859 93.238C175.617 89.1231 171.883 85.94 167.563 84.1647C162.716 82.1771 157.247 81.9908 152.15 83.0881C151.99 83.8955 151.824 84.703 151.627 85.5C151.591 85.6501 151.534 85.7795 151.467 85.9038C155.698 84.822 160.219 84.6253 164.451 85.8313C168.475 86.9803 172.038 89.3509 174.508 92.7411C176.818 95.919 178.315 100.603 176.596 104.366C175.772 106.162 174.198 107.472 172.23 107.772C169.925 108.124 167.491 107.321 165.326 106.623C160.603 105.096 156.169 102.839 151.793 100.526C153.652 98.2378 155.216 95.7586 156.465 93.0671C156.76 92.4305 156.289 91.6334 155.672 91.416C154.958 91.1676 154.315 91.5713 154.02 92.208C152.72 95.0081 150.99 97.6426 148.924 99.9407C148.427 100.489 148.235 101.55 149.053 101.985C153.772 104.49 158.516 107.021 163.581 108.766C166.072 109.625 168.791 110.51 171.458 110.417C174.078 110.323 176.368 109.205 177.958 107.104C180.987 103.103 180.128 97.3838 177.87 93.238H177.859Z" fill="#7A341C"/>
    <path d="M169.319 109.635C168.164 111.328 166.957 113.144 165.186 114.257C163.389 115.391 161.255 115.634 159.173 115.453C155.547 115.137 151.13 113.439 150.301 109.48C149.856 107.363 150.545 105.137 151.746 103.388C152.14 102.813 151.855 101.954 151.28 101.618C150.638 101.245 149.908 101.504 149.509 102.083C148.152 104.056 147.396 106.566 147.629 108.967C147.867 111.457 149.048 113.62 151.026 115.153C152.953 116.643 155.361 117.492 157.754 117.865C160.359 118.274 163.036 118.155 165.46 117.047C168.164 115.81 169.924 113.325 171.551 110.939C172.493 109.557 170.251 108.263 169.313 109.635H169.319Z" fill="#7A341C"/>
    <path d="M151.435 113.765C151.296 113.729 151.135 113.734 150.99 113.781C150.845 113.662 150.674 113.6 150.503 113.595C150.539 113.47 150.55 113.341 150.508 113.201C150.457 113.02 150.322 112.823 150.151 112.735C149.814 112.559 149.26 112.616 149.089 113.015C148.628 114.086 148.09 115.121 147.489 116.12C147.287 116.457 147.391 117.005 147.769 117.181C148.318 117.435 148.887 117.497 149.483 117.363C150.011 117.244 150.482 116.954 150.892 116.602C151.264 116.281 151.565 115.877 151.845 115.473C152.005 115.241 152.124 114.977 152.124 114.687C152.124 114.262 151.86 113.869 151.435 113.765Z" fill="#7A341C"/>
    <path d="M156.024 115.965C155.879 115.955 155.724 115.991 155.589 116.058C155.423 115.97 155.247 115.934 155.076 115.965C155.087 115.836 155.076 115.712 155.009 115.577C154.926 115.406 154.755 115.241 154.574 115.184C154.211 115.07 153.678 115.225 153.579 115.649C153.315 116.788 152.979 117.901 152.57 118.993C152.43 119.361 152.632 119.883 153.036 119.987C153.621 120.137 154.191 120.095 154.755 119.857C155.252 119.645 155.667 119.278 156.003 118.858C156.309 118.475 156.537 118.02 156.739 117.575C156.853 117.316 156.925 117.037 156.873 116.752C156.796 116.338 156.464 115.996 156.029 115.97L156.024 115.965Z" fill="#7A341C"/>
    <path d="M162.451 116.291C162.172 116.115 161.887 116.188 161.644 116.41C161.602 116.447 161.566 116.483 161.524 116.519C161.478 116.457 161.426 116.4 161.364 116.364C161.038 116.162 160.691 116.276 160.478 116.607C160.442 116.307 160.24 116.017 159.991 115.95C159.619 115.851 159.297 116.084 159.173 116.493C158.966 117.166 158.759 117.839 158.552 118.512C158.433 118.895 158.272 119.288 158.37 119.702C158.495 120.235 158.94 120.458 159.38 120.437C160.369 120.391 161.348 119.832 161.985 118.941C162.353 118.424 162.638 117.829 162.757 117.166C162.814 116.84 162.721 116.457 162.451 116.291Z" fill="#7A341C"/>
    <path d="M125.245 109.438C125.348 109.542 125.483 109.625 125.628 109.661C125.69 109.837 125.799 109.982 125.944 110.075C125.851 110.163 125.773 110.267 125.732 110.406C125.68 110.587 125.695 110.826 125.789 110.991C125.98 111.317 126.483 111.566 126.84 111.317C127.798 110.655 128.803 110.06 129.844 109.532C130.191 109.356 130.398 108.833 130.17 108.481C129.839 107.974 129.388 107.622 128.813 107.42C128.3 107.239 127.746 107.233 127.218 107.316C126.731 107.394 126.26 107.575 125.809 107.772C125.55 107.886 125.312 108.046 125.157 108.289C124.929 108.646 124.95 109.123 125.25 109.438H125.245Z" fill="#7A341C"/>
    <path d="M128.953 112.725C129.03 112.849 129.149 112.953 129.284 113.02C129.31 113.206 129.388 113.367 129.512 113.486C129.398 113.553 129.305 113.636 129.237 113.765C129.149 113.931 129.118 114.169 129.175 114.35C129.294 114.707 129.74 115.049 130.139 114.878C131.211 114.418 132.314 114.035 133.438 113.724C133.816 113.62 134.121 113.149 133.966 112.761C133.743 112.197 133.37 111.762 132.847 111.452C132.381 111.172 131.837 111.058 131.304 111.038C130.812 111.017 130.315 111.1 129.833 111.203C129.553 111.265 129.289 111.369 129.087 111.581C128.797 111.887 128.714 112.358 128.953 112.725Z" fill="#7A341C"/>
    <path d="M130.512 117.885C130.59 118.01 130.709 118.113 130.844 118.18C130.869 118.367 130.947 118.527 131.071 118.646C130.957 118.713 130.864 118.796 130.797 118.926C130.709 119.091 130.678 119.329 130.735 119.511C130.854 119.868 131.299 120.209 131.698 120.039C132.77 119.578 133.873 119.195 134.997 118.884C135.375 118.781 135.681 118.31 135.525 117.922C135.303 117.357 134.93 116.923 134.407 116.612C133.941 116.333 133.397 116.219 132.863 116.198C132.371 116.177 131.874 116.26 131.393 116.364C131.113 116.426 130.849 116.529 130.647 116.741C130.357 117.047 130.274 117.518 130.512 117.885Z" fill="#7A341C"/>
    <path d="M160.037 97.979L159.835 97.7151C159.675 97.5546 159.483 97.4459 159.265 97.3838C158.489 97.0888 157.707 96.7938 156.93 96.4987C156.634 96.3849 156.194 96.4729 155.93 96.6281C155.661 96.7834 155.407 97.094 155.335 97.3993C155.257 97.7306 155.278 98.1033 155.464 98.3983C155.531 98.4863 155.599 98.5743 155.666 98.6623C155.827 98.8227 156.018 98.9314 156.236 98.9935C157.013 99.2885 157.795 99.5836 158.571 99.8786C158.867 99.9925 159.307 99.9045 159.571 99.7492C159.84 99.5939 160.094 99.2834 160.167 98.978C160.244 98.6467 160.224 98.2741 160.037 97.979Z" fill="white"/>
    <path d="M167.474 101.069C167.376 100.758 167.179 100.448 166.879 100.298C165.905 99.8061 164.937 99.3144 163.963 98.8227C163.652 98.6674 163.31 98.5949 162.963 98.6933C162.663 98.7761 162.337 99.009 162.192 99.2885C162.031 99.5887 161.953 99.951 162.062 100.287C162.161 100.598 162.357 100.909 162.658 101.059C163.631 101.55 164.6 102.042 165.574 102.534C165.884 102.689 166.226 102.762 166.573 102.663C166.874 102.58 167.2 102.347 167.345 102.068C167.505 101.768 167.583 101.405 167.474 101.069Z" fill="white"/>
    <path d="M175.046 102.989C174.958 102.922 174.87 102.855 174.782 102.787C174.647 102.71 174.502 102.668 174.352 102.637C173.808 102.56 173.28 102.415 172.767 102.213C172.456 102.073 172.156 101.913 171.866 101.726C171.591 101.55 171.177 101.509 170.866 101.597C170.566 101.68 170.24 101.913 170.095 102.192C169.753 102.834 169.95 103.569 170.561 103.962C171.094 104.304 171.674 104.573 172.27 104.79C172.876 105.008 173.497 105.117 174.134 105.194C174.44 105.23 174.844 105.023 175.051 104.816C175.274 104.594 175.445 104.221 175.429 103.9C175.414 103.564 175.305 103.217 175.051 102.984L175.046 102.989Z" fill="white"/>
  </g>
  <defs>
    <clipPath id="clip0_14_6904">
      <rect width="279.476" height="132" fill="white"/>
    </clipPath>
  </defs>
</svg>
